<?xml version="1.0" encoding="UTF-8"?>
<!DOCTYPE svg PUBLIC "-//W3C//DTD SVG 1.1//EN" "http://www.w3.org/Graphics/SVG/1.1/DTD/svg11.dtd">
<!-- Creator: CorelDRAW -->
<svg xmlns="http://www.w3.org/2000/svg" xml:space="preserve" width="2048px" height="2048px" style="shape-rendering:geometricPrecision; text-rendering:geometricPrecision; image-rendering:optimizeQuality; fill-rule:evenodd; clip-rule:evenodd"
viewBox="0 0 2048 2048"
 xmlns:xlink="http://www.w3.org/1999/xlink">
 <defs>
  <style type="text/css">
   <![CDATA[
    .fil2 {fill:none}
    .fil6 {fill:#2196F3}
    .fil3 {fill:#263238}
    .fil4 {fill:#37474F}
    .fil1 {fill:#E53935}
    .fil0 {fill:#EF5350}
    .fil7 {fill:#FF9800}
    .fil5 {fill:#FFFDE7}
   ]]>
  </style>
   <clipPath id="id0">
    <path d="M1024 -0.0011811c565.541,0 1024,458.461 1024,1024 0,565.541 -458.461,1024 -1024,1024 -565.541,0 -1024,-458.461 -1024,-1024 0,-565.541 458.461,-1024 1024,-1024z"/>
   </clipPath>
 </defs>
 <g id="Layer_x0020_1">
  <metadata id="CorelCorpID_0Corel-Layer"/>
  <path class="fil0" d="M1024 -0.0011811c565.541,0 1024,458.461 1024,1024 0,565.541 -458.461,1024 -1024,1024 -565.541,0 -1024,-458.461 -1024,-1024 0,-565.541 458.461,-1024 1024,-1024z"/>
  <g style="clip-path:url(#id0)">
   <g id="_464383296">
    <g>
     <polygon id="_4667967761" class="fil1" points="1516,747.787 2651.88,1883.67 2655.15,1887.54 2658.32,1891.48 2661.41,1895.5 2664.39,1899.6 2667.28,1903.77 2670.08,1908.01 2672.77,1912.32 2675.36,1916.7 2677.85,1921.15 2680.23,1925.67 2682.5,1930.24 2684.67,1934.88 2686.73,1939.58 2688.67,1944.34 2690.5,1949.16 2692.22,1954.03 2693.82,1958.96 2695.3,1963.93 2696.66,1968.96 2697.9,1974.04 2699.01,1979.16 2700,1984.33 2700.87,1989.55 2701.6,1994.8 2702.21,2000.1 2702.68,2005.43 2703.02,2010.81 2703.23,2016.21 2703.3,2021.66 1567.41,885.774 1567.35,880.332 1567.14,874.925 1566.8,869.552 1566.33,864.217 1565.72,858.92 1564.99,853.664 1564.12,848.45 1563.13,843.281 1562.01,838.157 1560.78,833.079 1559.42,828.051 1557.94,823.074 1556.34,818.149 1554.62,813.277 1552.79,808.46 1550.84,803.702 1548.79,799.002 1546.62,794.362 1544.35,789.784 1541.97,785.271 1539.48,780.821 1536.89,776.441 1534.2,772.127 1531.4,767.885 1528.51,763.714 1525.52,759.618 1522.44,755.597 1519.26,751.653 "/>
     <polygon id="_466796800" class="fil1" points="1567.41,885.774 2703.3,2021.66 2703.24,2021.66 1567.36,885.774 "/>
     <polygon id="_466797400" class="fil1" points="1567.36,885.774 2703.24,2021.66 2719.74,2419.47 1583.86,1283.58 "/>
     <polygon id="_466797472" class="fil1" points="1583.86,1283.58 2719.74,2419.47 2719.8,2420.95 2719.84,2422.43 2719.86,2423.92 2719.88,2425.4 2719.88,2426.89 2719.87,2428.37 2719.84,2429.86 2719.8,2431.34 2719.75,2432.82 2719.68,2434.3 2719.6,2435.77 2719.49,2437.25 2719.38,2438.72 2719.24,2440.18 2719.09,2441.64 2718.92,2443.1 2718.74,2444.55 2718.53,2446 2718.31,2447.44 2718.06,2448.88 2717.8,2450.31 2717.52,2451.73 2717.21,2453.14 2716.89,2454.55 2716.55,2455.94 2716.18,2457.33 2715.79,2458.72 2715.38,2460.09 2714.95,2461.45 2714.49,2462.8 2714.01,2464.14 2713.51,2465.47 1577.63,1329.59 1578.13,1328.26 1578.61,1326.92 1579.07,1325.57 1579.5,1324.2 1579.91,1322.83 1580.3,1321.45 1580.67,1320.06 1581.01,1318.67 1581.33,1317.26 1581.64,1315.84 1581.92,1314.42 1582.18,1312.99 1582.42,1311.56 1582.65,1310.12 1582.85,1308.67 1583.04,1307.22 1583.21,1305.76 1583.36,1304.3 1583.5,1302.83 1583.61,1301.36 1583.71,1299.89 1583.8,1298.42 1583.87,1296.94 1583.92,1295.46 1583.96,1293.97 1583.99,1292.49 1584,1291.01 1584,1289.52 1583.98,1288.04 1583.95,1286.55 1583.91,1285.07 "/>
     <polygon id="_466797544" class="fil1" points="1577.63,1329.59 2713.51,2465.47 2712.23,2468.56 2710.83,2471.57 2709.3,2474.5 2707.64,2477.33 2705.84,2480.07 2703.9,2482.71 2701.83,2485.24 2699.6,2487.67 2697.23,2489.98 2694.7,2492.17 2692.01,2494.23 2689.16,2496.17 2686.14,2497.98 2682.96,2499.65 2679.59,2501.18 2676.06,2502.55 1540.17,1366.67 1543.71,1365.29 1547.07,1363.77 1550.26,1362.1 1553.28,1360.29 1556.13,1358.35 1558.82,1356.29 1561.35,1354.09 1563.72,1351.78 1565.95,1349.36 1568.02,1346.83 1569.96,1344.19 1571.75,1341.45 1573.41,1338.62 1574.95,1335.69 1576.35,1332.68 "/>
     <polygon id="_466797616" class="fil1" points="1259.75,1105.32 2395.63,2241.2 2394.82,2242.15 2394,2243.08 2393.16,2244 2392.32,2244.91 2391.46,2245.81 2390.59,2246.69 2389.71,2247.57 2388.82,2248.43 2387.92,2249.29 2387,2250.13 2386.08,2250.96 2385.14,2251.77 2384.2,2252.58 2383.24,2253.37 2382.27,2254.15 2381.3,2254.92 1245.42,1119.03 1246.39,1118.27 1247.36,1117.49 1248.32,1116.69 1249.26,1115.89 1250.2,1115.07 1251.12,1114.24 1252.04,1113.4 1252.94,1112.55 1253.83,1111.69 1254.71,1110.81 1255.58,1109.92 1256.44,1109.03 1257.28,1108.12 1258.11,1107.2 1258.94,1106.27 "/>
     <polygon id="_466797688" class="fil1" points="1245.42,1119.03 2381.3,2254.92 2379.77,2256.08 2378.22,2257.21 2376.64,2258.31 2375.04,2259.38 2373.42,2260.41 2371.78,2261.42 2370.12,2262.39 2368.43,2263.33 2366.73,2264.24 2365.01,2265.11 2363.26,2265.95 2361.5,2266.76 2359.72,2267.53 2357.92,2268.26 2356.1,2268.96 2354.27,2269.62 2352.42,2270.25 2350.55,2270.84 2348.67,2271.39 2346.77,2271.9 2344.85,2272.37 2342.92,2272.81 2340.98,2273.2 2339.02,2273.56 2337.05,2273.88 2335.07,2274.15 2333.07,2274.39 2331.07,2274.58 2329.05,2274.73 2327.02,2274.84 2324.98,2274.9 2322.93,2274.92 1187.04,1139.04 1189.1,1139.02 1191.14,1138.95 1193.17,1138.85 1195.19,1138.7 1197.19,1138.5 1199.19,1138.27 1201.17,1137.99 1203.14,1137.68 1205.1,1137.32 1207.04,1136.93 1208.97,1136.49 1210.89,1136.02 1212.79,1135.5 1214.67,1134.95 1216.54,1134.36 1218.39,1133.74 1220.22,1133.08 1222.04,1132.38 1223.84,1131.64 1225.62,1130.87 1227.38,1130.07 1229.12,1129.23 1230.85,1128.36 1232.55,1127.45 1234.24,1126.51 1235.9,1125.54 1237.54,1124.53 1239.16,1123.49 1240.76,1122.42 1242.34,1121.33 1243.89,1120.19 "/>
     <polygon id="_466797760" class="fil1" points="1540.17,1366.67 2676.06,2502.55 2673.34,2503.49 2670.64,2504.35 2667.96,2505.14 2665.28,2505.84 2662.61,2506.48 2659.95,2507.03 2657.31,2507.52 2654.67,2507.94 2652.05,2508.28 2649.44,2508.55 2646.84,2508.75 2644.25,2508.89 2641.67,2508.95 2639.11,2508.95 2636.56,2508.89 2634.02,2508.75 2631.5,2508.56 2628.99,2508.3 2626.49,2507.97 2624.01,2507.59 2621.54,2507.14 2619.08,2506.64 2616.64,2506.07 2614.21,2505.45 2611.79,2504.77 2609.39,2504.03 2607.01,2503.24 2604.64,2502.39 2602.28,2501.49 2599.94,2500.53 2597.61,2499.53 2595.3,2498.47 1459.42,1362.58 1461.73,1363.64 1464.06,1364.65 1466.4,1365.61 1468.75,1366.51 1471.12,1367.36 1473.51,1368.15 1475.91,1368.89 1478.33,1369.57 1480.76,1370.19 1483.2,1370.76 1485.66,1371.26 1488.13,1371.71 1490.61,1372.09 1493.11,1372.41 1495.62,1372.67 1498.14,1372.87 1500.68,1373 1503.23,1373.07 1505.79,1373.07 1508.37,1373.01 1510.96,1372.87 1513.55,1372.67 1516.17,1372.4 1518.79,1372.05 1521.42,1371.64 1524.07,1371.15 1526.73,1370.59 1529.39,1369.96 1532.07,1369.25 1534.76,1368.47 1537.46,1367.61 "/>
     <polygon id="_466797832" class="fil1" points="1459.42,1362.58 2595.3,2498.47 2592.81,2497.26 2590.34,2495.99 2587.89,2494.66 2585.47,2493.28 2583.07,2491.84 2580.69,2490.35 2578.33,2488.8 2576,2487.2 2573.7,2485.56 2571.41,2483.86 2569.15,2482.11 2566.92,2480.32 2564.71,2478.48 2562.53,2476.6 2560.37,2474.67 2558.24,2472.71 2556.13,2470.7 2554.05,2468.65 2551.99,2466.57 1416.11,1330.68 1418.17,1332.77 1420.25,1334.82 1422.36,1336.83 1424.49,1338.79 1426.65,1340.72 1428.83,1342.6 1431.04,1344.44 1433.27,1346.23 1435.53,1347.98 1437.81,1349.67 1440.12,1351.32 1442.45,1352.92 1444.81,1354.46 1447.19,1355.96 1449.59,1357.39 1452.01,1358.78 1454.46,1360.1 1456.93,1361.37 "/>
     <polygon id="_466797904" class="fil1" points="1091.88,1051.3 2227.76,2187.18 2226.06,2187.18 2224.35,2187.18 2222.64,2187.18 2220.92,2187.18 2219.2,2187.17 2217.48,2187.17 2215.75,2187.17 2214.02,2187.17 2212.28,2187.17 2210.54,2187.17 2208.8,2187.16 2207.06,2187.16 2205.31,2187.16 2203.56,2187.16 2201.8,2187.16 2200.05,2187.16 2198.29,2187.16 2196.53,2187.16 2194.76,2187.16 2193,2187.16 2191.23,2187.16 2189.46,2187.16 2187.69,2187.16 2185.92,2187.16 2184.14,2187.16 2182.36,2187.16 2180.58,2187.16 2178.8,2187.16 2177.02,2187.16 2175.24,2187.16 2173.46,2187.17 2171.67,2187.17 1035.79,1051.28 1037.58,1051.28 1039.36,1051.28 1041.14,1051.28 1042.92,1051.28 1044.7,1051.28 1046.48,1051.28 1048.26,1051.28 1050.03,1051.28 1051.81,1051.28 1053.58,1051.28 1055.35,1051.28 1057.12,1051.28 1058.88,1051.28 1060.65,1051.28 1062.41,1051.28 1064.17,1051.28 1065.92,1051.28 1067.68,1051.28 1069.43,1051.28 1071.18,1051.28 1072.92,1051.28 1074.66,1051.28 1076.4,1051.28 1078.14,1051.29 1079.87,1051.29 1081.6,1051.29 1083.32,1051.29 1085.04,1051.29 1086.76,1051.29 1088.47,1051.3 1090.18,1051.3 "/>
     <polygon id="_466797976" class="fil1" points="1187.04,1139.04 2322.93,2274.92 2320.46,2274.89 2318.01,2274.8 2315.58,2274.64 2313.16,2274.43 2310.77,2274.16 2308.39,2273.82 2306.03,2273.43 2303.69,2272.98 2301.37,2272.48 2299.07,2271.92 2296.79,2271.3 2294.54,2270.63 2292.31,2269.91 2290.1,2269.13 2287.92,2268.3 2285.76,2267.42 2283.64,2266.49 2281.53,2265.51 2279.46,2264.48 2277.42,2263.4 2275.4,2262.27 2273.42,2261.1 2271.47,2259.88 2269.55,2258.62 2267.66,2257.31 2265.8,2255.95 2263.98,2254.56 2262.2,2253.12 2260.45,2251.64 2258.73,2250.12 2257.06,2248.56 2255.42,2246.96 1119.54,1111.07 1121.18,1112.67 1122.85,1114.24 1124.57,1115.76 1126.32,1117.24 1128.1,1118.67 1129.92,1120.07 1131.78,1121.42 1133.67,1122.73 1135.59,1124 1137.54,1125.22 1139.52,1126.39 1141.54,1127.52 1143.58,1128.59 1145.65,1129.62 1147.75,1130.61 1149.88,1131.54 1152.04,1132.42 1154.22,1133.25 1156.42,1134.02 1158.66,1134.75 1160.91,1135.42 1163.18,1136.03 1165.48,1136.6 1167.8,1137.1 1170.14,1137.55 1172.51,1137.94 1174.88,1138.27 1177.28,1138.55 1179.7,1138.76 1182.13,1138.92 1184.58,1139.01 "/>
     <polygon id="_466798048" class="fil1" points="1035.79,1051.28 2171.67,2187.17 2169.86,2187.17 2168.04,2187.17 2166.23,2187.17 2164.41,2187.17 2162.6,2187.17 2160.78,2187.18 2158.96,2187.18 2157.15,2187.18 2155.33,2187.18 2153.51,2187.18 2151.7,2187.19 2149.88,2187.19 2148.07,2187.19 2146.25,2187.19 2144.44,2187.2 2142.63,2187.2 2140.81,2187.2 2139,2187.2 2137.19,2187.21 2135.39,2187.21 2133.58,2187.21 2131.77,2187.21 2129.97,2187.22 2128.17,2187.22 2126.37,2187.22 2124.57,2187.23 2122.78,2187.23 2120.99,2187.23 2119.2,2187.24 2117.41,2187.24 2115.62,2187.24 2113.84,2187.25 977.959,1051.37 979.742,1051.36 981.526,1051.36 983.315,1051.36 985.105,1051.35 986.898,1051.35 988.692,1051.34 990.49,1051.34 992.289,1051.34 994.09,1051.34 995.893,1051.33 997.698,1051.33 999.505,1051.33 1001.31,1051.32 1003.12,1051.32 1004.93,1051.32 1006.74,1051.32 1008.56,1051.31 1010.37,1051.31 1012.19,1051.31 1014,1051.31 1015.82,1051.3 1017.63,1051.3 1019.45,1051.3 1021.27,1051.3 1023.08,1051.3 1024.9,1051.29 1026.72,1051.29 1028.53,1051.29 1030.35,1051.29 1032.16,1051.29 1033.98,1051.29 "/>
     <polygon id="_466798120" class="fil1" points="977.959,1051.37 2113.84,2187.25 2113.64,2189.42 2113.39,2191.58 2113.09,2193.72 2112.75,2195.85 2112.36,2197.96 2111.92,2200.06 2111.44,2202.14 2110.91,2204.2 2110.34,2206.24 2109.73,2208.27 2109.07,2210.27 2108.37,2212.26 2107.62,2214.22 2106.84,2216.17 2106.01,2218.09 2105.14,2219.99 2104.24,2221.87 2103.29,2223.72 2102.3,2225.55 2101.28,2227.36 2100.22,2229.14 2099.12,2230.9 2097.98,2232.63 2096.81,2234.33 2095.6,2236.01 2094.36,2237.66 2093.08,2239.28 2091.77,2240.88 2090.42,2242.44 2089.04,2243.98 2087.63,2245.48 2086.19,2246.96 950.309,1111.07 951.752,1109.6 953.162,1108.1 954.54,1106.56 955.886,1105 957.198,1103.4 958.476,1101.78 959.72,1100.13 960.928,1098.45 962.101,1096.75 963.237,1095.02 964.337,1093.26 965.398,1091.48 966.422,1089.67 967.409,1087.84 968.355,1085.98 969.263,1084.11 970.13,1082.21 970.957,1080.28 971.742,1078.34 972.486,1076.37 973.188,1074.39 973.846,1072.38 974.461,1070.36 975.033,1068.32 975.561,1066.26 976.042,1064.18 976.478,1062.08 976.869,1059.97 977.213,1057.84 977.509,1055.7 977.759,1053.54 "/>
     <polygon id="_466798192" class="fil1" points="950.309,1111.07 2086.19,2246.96 2084.55,2248.56 2082.87,2250.12 2081.16,2251.64 2079.41,2253.12 2077.62,2254.56 2075.8,2255.95 2073.95,2257.31 2072.06,2258.62 2070.14,2259.88 2068.19,2261.1 2066.2,2262.27 2064.19,2263.4 2062.14,2264.48 2060.07,2265.51 2057.97,2266.49 2055.84,2267.42 2053.69,2268.3 2051.51,2269.13 2049.3,2269.91 2047.07,2270.63 2044.82,2271.3 2042.54,2271.92 2040.24,2272.48 2037.92,2272.98 2035.58,2273.43 2033.22,2273.82 2030.84,2274.16 2028.44,2274.43 2026.03,2274.64 2023.59,2274.8 2021.15,2274.89 2018.68,2274.92 882.8,1139.04 885.264,1139.01 887.712,1138.92 890.146,1138.76 892.561,1138.55 894.959,1138.27 897.338,1137.94 899.698,1137.55 902.039,1137.1 904.359,1136.6 906.659,1136.03 908.935,1135.42 911.189,1134.75 913.419,1134.02 915.624,1133.25 917.806,1132.42 919.96,1131.54 922.089,1130.61 924.19,1129.62 926.263,1128.59 928.306,1127.52 930.321,1126.39 932.305,1125.22 934.257,1124 936.178,1122.73 938.066,1121.42 939.922,1120.07 941.742,1118.68 943.529,1117.24 945.279,1115.76 946.993,1114.24 948.669,1112.67 "/>
     <polygon id="_466798264" class="fil1" points="479.83,885.774 1615.71,2021.66 1615.66,2021.66 479.777,885.774 "/>
     <polygon id="_466798336" class="fil1" points="799.026,1089.4 1934.91,2225.28 1792.01,2436.51 656.128,1300.63 "/>
     <polygon id="_466798408" class="fil1" points="656.128,1300.63 1792.01,2436.51 1790.31,2438.99 1788.59,2441.44 1786.84,2443.87 1785.05,2446.27 1783.24,2448.64 1781.41,2450.99 1779.54,2453.31 1777.65,2455.6 1775.72,2457.86 1773.78,2460.09 1771.8,2462.28 1769.8,2464.44 1767.77,2466.57 1765.71,2468.65 1763.63,2470.7 1761.53,2472.71 1759.39,2474.68 1757.23,2476.6 1755.05,2478.48 1752.84,2480.32 1750.61,2482.11 1748.35,2483.86 1746.07,2485.56 1743.76,2487.2 1741.43,2488.8 1739.07,2490.35 1736.7,2491.84 1734.29,2493.28 1731.87,2494.66 1729.42,2495.99 1726.95,2497.26 1724.46,2498.47 588.578,1362.58 591.07,1361.37 593.541,1360.1 595.988,1358.78 598.413,1357.39 600.814,1355.96 603.192,1354.46 605.547,1352.92 607.878,1351.32 610.185,1349.67 612.468,1347.98 614.726,1346.23 616.96,1344.44 619.169,1342.6 621.352,1340.72 623.512,1338.79 625.645,1336.83 627.752,1334.82 629.833,1332.77 631.888,1330.68 633.917,1328.56 635.919,1326.4 637.895,1324.21 639.844,1321.98 641.764,1319.72 643.659,1317.43 645.525,1315.11 647.363,1312.76 649.173,1310.39 650.954,1307.98 652.708,1305.56 654.433,1303.1 "/>
     <polygon id="_466798480" class="fil1" points="588.578,1362.58 1724.46,2498.47 1722.15,2499.53 1719.82,2500.53 1717.48,2501.49 1715.13,2502.39 1712.76,2503.24 1710.37,2504.03 1707.97,2504.77 1705.56,2505.45 1703.13,2506.07 1700.68,2506.64 1698.23,2507.14 1695.75,2507.59 1693.27,2507.97 1690.77,2508.3 1688.26,2508.56 1685.74,2508.75 1683.2,2508.89 1680.65,2508.95 1678.09,2508.95 1675.51,2508.89 1672.93,2508.75 1670.33,2508.55 1667.72,2508.28 1665.09,2507.94 1662.46,2507.52 1659.81,2507.03 1657.16,2506.48 1654.49,2505.84 1651.81,2505.14 1649.12,2504.35 1646.42,2503.49 1643.71,2502.55 507.826,1366.67 510.537,1367.61 513.237,1368.47 515.926,1369.25 518.606,1369.96 521.274,1370.59 523.93,1371.15 526.576,1371.64 529.211,1372.05 531.834,1372.4 534.446,1372.67 537.044,1372.87 539.632,1373.01 542.207,1373.07 544.769,1373.07 547.319,1373 549.857,1372.87 552.381,1372.67 554.892,1372.41 557.39,1372.09 559.874,1371.71 562.345,1371.26 564.802,1370.76 567.245,1370.19 569.674,1369.57 572.089,1368.89 574.49,1368.15 576.876,1367.36 579.246,1366.51 581.602,1365.61 583.942,1364.65 586.268,1363.64 "/>
     <polygon id="_466798552" class="fil1" points="507.826,1366.67 1643.71,2502.55 1640.17,2501.18 1636.81,2499.65 1633.62,2497.98 1630.6,2496.17 1627.75,2494.23 1625.06,2492.17 489.183,1356.28 491.872,1358.35 494.722,1360.29 497.738,1362.1 500.926,1363.77 504.287,1365.29 "/>
     <polygon id="_466798624" class="fil1" points="882.8,1139.04 2018.68,2274.92 2016.22,2274.89 2013.77,2274.8 2011.34,2274.64 2008.92,2274.43 2006.52,2274.16 2004.14,2273.82 2001.78,2273.43 1999.44,2272.98 1997.12,2272.48 1994.82,2271.92 1992.54,2271.3 1990.29,2270.63 1988.06,2269.91 1985.86,2269.13 1983.67,2268.3 1981.52,2267.42 1979.39,2266.49 1977.29,2265.51 1975.22,2264.48 1973.17,2263.4 1971.16,2262.27 1969.18,2261.1 1967.22,2259.88 1965.3,2258.62 1963.41,2257.31 1961.56,2255.95 1959.74,2254.56 1957.95,2253.12 1956.2,2251.64 1954.49,2250.12 1952.81,2248.56 816.929,1112.67 818.605,1114.24 820.32,1115.76 822.07,1117.24 823.856,1118.68 825.677,1120.07 827.532,1121.42 829.42,1122.73 831.341,1124 833.294,1125.22 835.279,1126.39 837.292,1127.52 839.337,1128.59 841.41,1129.62 843.51,1130.61 845.638,1131.54 847.794,1132.42 849.974,1133.25 852.18,1134.02 854.41,1134.75 856.664,1135.42 858.941,1136.03 861.239,1136.6 863.56,1137.1 865.901,1137.55 868.261,1137.94 870.641,1138.27 873.04,1138.55 875.455,1138.76 877.888,1138.92 880.337,1139.01 "/>
    </g>
    <path id="_464383728" class="fil1" d="M837.644 734.715l371.903 0c18.1536,-17.6634 39.4843,-32.0894 63.0591,-42.3343 25.8414,-11.2323 54.2386,-17.4602 83.954,-17.4602 58.2225,0 110.937,23.6008 149.095,61.7587 38.1567,38.1579 61.7587,90.8717 61.7587,149.095l-0.0519685 0 16.4977 397.809c0.623623,15.815 -0.732284,31.8803 -6.23268,46.0052 -6.50315,16.702 -18.0969,30.1276 -37.454,37.0843 -28.9677,10.4114 -56.1957,7.48347 -80.752,-4.08898 -26.7071,-12.5858 -49.6217,-35.4508 -67.5497,-61.9524l-132.125 -195.308c-4.28859,5.05276 -9.09331,9.65316 -14.3303,13.7114 -16.1835,12.5398 -36.4382,20.0067 -58.3725,20.0067 -26.3622,0 -50.2311,-10.6878 -67.5083,-27.9662 -15.5717,-15.5717 -25.7882,-36.4961 -27.6544,-59.7733 -18.1547,-0.0259843 -37.0548,-0.0295276 -56.0882,-0.0165354 -19.3477,0.0129921 -38.8382,0.0413386 -57.8339,0.0814961 -1.8815,23.2512 -12.0933,44.152 -27.6508,59.7083 -17.2772,17.2795 -41.1485,27.9662 -67.5083,27.9662 -26.3622,0 -50.2323,-10.6866 -67.5107,-27.9662 -6.39331,-6.39213 -11.8831,-13.689 -16.2638,-21.6792l-142.898 211.236c-17.9291,26.5028 -40.8437,49.3666 -67.5497,61.9524 -24.5563,11.5724 -51.7843,14.5004 -80.752,4.08898 -19.3571,-6.9567 -30.952,-20.3835 -37.4528,-37.0843 -5.50158,-14.1248 -6.8563,-30.1902 -6.23386,-46.0052l15.691 -397.809 -0.0531496 0c0,-58.2237 23.602,-110.937 61.7587,-149.095 38.1579,-38.1579 90.8729,-61.7587 149.095,-61.7587 29.7154,0 58.1126,6.22796 83.954,17.4602 23.5748,10.2449 44.9055,24.6709 63.0591,42.3343z"/>
   </g>
  </g>
  <path class="fil2" d="M1024 -0.0011811c565.541,0 1024,458.461 1024,1024 0,565.541 -458.461,1024 -1024,1024 -565.541,0 -1024,-458.461 -1024,-1024 0,-565.541 458.461,-1024 1024,-1024z"/>
  <path class="fil3" d="M1356.56 674.92c58.2225,0 110.937,23.6008 149.095,61.7587 38.1567,38.1579 61.7587,90.8717 61.7587,149.095l-0.0519685 0 16.4977 397.809c0.623623,15.815 -0.732284,31.8803 -6.23268,46.0052 -6.50315,16.702 -18.0969,30.1276 -37.454,37.0843 -28.9677,10.4114 -56.1957,7.48347 -80.752,-4.08898 -26.7071,-12.5858 -49.6217,-35.4508 -67.5497,-61.9524l-132.125 -195.308c-4.28859,5.05276 -9.09331,9.65316 -14.3303,13.7114 -16.1835,12.5398 -36.4382,20.0067 -58.3725,20.0067 -26.3622,0 -50.2311,-10.6878 -67.5083,-27.9662 -15.5717,-15.5717 -25.7882,-36.4961 -27.6544,-59.7733 -18.1547,-0.0259843 -37.0548,-0.0295276 -56.0882,-0.0165354 -19.3477,0.0129921 -38.8382,0.0413386 -57.8339,0.0814961 -1.8815,23.2512 -12.0933,44.152 -27.6508,59.7083 -17.2772,17.2795 -41.1485,27.9662 -67.5083,27.9662 -26.3622,0 -50.2323,-10.6866 -67.5107,-27.9662 -6.39331,-6.39213 -11.8831,-13.689 -16.2638,-21.6792l-142.898 211.236c-17.9291,26.5028 -40.8437,49.3666 -67.5497,61.9524 -24.5563,11.5724 -51.7843,14.5004 -80.752,4.08898 -19.3571,-6.9567 -30.952,-20.3835 -37.4528,-37.0843 -5.50158,-14.1248 -6.8563,-30.1902 -6.23386,-46.0052l15.691 -397.809 -0.0531496 0c0,-58.2237 23.602,-110.937 61.7587,-149.095 38.1579,-38.1579 90.8729,-61.7587 149.095,-61.7587 29.7154,0 58.1126,6.22796 83.954,17.4602 23.5748,10.2449 44.9055,24.6709 63.0591,42.3343l371.903 0c18.1536,-17.6634 39.4843,-32.0894 63.0591,-42.3343 25.8414,-11.2323 54.2386,-17.4602 83.954,-17.4602z"/>
  <ellipse class="fil4" cx="1363.48" cy="882.26" rx="163.111" ry="163.111"/>
  <ellipse class="fil4" cx="683.706" cy="891.155" rx="163.111" ry="163.111"/>
  <path class="fil5" d="M1252.33 904.92c-12.5138,0 -22.6595,-10.1457 -22.6595,-22.6606 0,-12.5138 10.1457,-22.6595 22.6595,-22.6595l67.9772 0c12.5138,0 22.6595,10.1457 22.6595,22.6595 0,12.515 -10.1457,22.6606 -22.6595,22.6606l-67.9772 0z"/>
  <path class="fil5" d="M1386.14 993.406c0,12.5138 -10.1457,22.6595 -22.6595,22.6595 -12.515,0 -22.6595,-10.1457 -22.6595,-22.6595l0 -67.9772c0,-12.5138 10.1445,-22.6595 22.6595,-22.6595 12.5138,0 22.6595,10.1457 22.6595,22.6595l0 67.9772z"/>
  <path class="fil5" d="M1406.65 904.92c-12.5138,0 -22.6595,-10.1457 -22.6595,-22.6606 0,-12.5138 10.1457,-22.6595 22.6595,-22.6595l67.9784 0c12.5138,0 22.6595,10.1457 22.6595,22.6595 0,12.515 -10.1457,22.6606 -22.6595,22.6606l-67.9784 0z"/>
  <path class="fil5" d="M1386.14 839.091c0,12.5138 -10.1457,22.6595 -22.6595,22.6595 -12.515,0 -22.6595,-10.1457 -22.6595,-22.6595l0 -67.9772c0,-12.515 10.1445,-22.6595 22.6595,-22.6595 12.5138,0 22.6595,10.1445 22.6595,22.6595l0 67.9772z"/>
  <polygon class="fil6" points="1068.91,857.45 1183.02,857.45 1183.02,902.77 1068.91,902.77 "/>
  <polygon class="fil6" points="865.794,857.45 978.275,857.45 978.275,902.77 865.794,902.77 "/>
  <ellipse class="fil4" cx="883.14" cy="1043.22" rx="95.1343" ry="95.1342"/>
  <ellipse class="fil4" cx="1186.7" cy="1043.22" rx="95.1343" ry="95.1342"/>
  <path class="fil7" d="M918.268 1008.1c-9.07442,-9.07442 -21.6154,-14.6882 -35.4674,-14.6882 -13.8532,0 -26.3941,5.61378 -35.4697,14.6882 -9.07442,9.0756 -14.6882,21.6166 -14.6882,35.4685 0,13.8532 5.61378,26.3941 14.6882,35.4697 9.0756,9.07442 21.6166,14.6882 35.4697,14.6882 13.852,0 26.3929,-5.61378 35.4674,-14.6882 9.07442,-9.0756 14.6882,-21.6166 14.6882,-35.4697 0,-13.852 -5.61378,-26.3929 -14.6882,-35.4685z"/>
  <path class="fil7" d="M1222.51 1008.1c-9.0756,-9.07442 -21.6154,-14.6882 -35.4685,-14.6882 -13.852,0 -26.3918,5.61378 -35.4662,14.6882 -9.0756,9.0756 -14.6894,21.6154 -14.6894,35.4685 0,13.8532 5.61378,26.3929 14.6894,35.4674 9.07442,9.07442 21.6142,14.6894 35.4662,14.6894 13.8532,0 26.3929,-5.61378 35.4685,-14.6894 9.07442,-9.07442 14.6882,-21.6142 14.6882,-35.4674 0,-13.852 -5.61378,-26.3929 -14.6882,-35.4685z"/>
  <path class="fil5" d="M683.705 925.429c18.7725,0 33.9886,15.2173 33.9886,33.9886 0,18.7713 -15.2162,33.9886 -33.9886,33.9886 -18.7713,0 -33.9886,-15.2173 -33.9886,-33.9886 0,-18.7713 15.2173,-33.9886 33.9886,-33.9886z"/>
  <path class="fil5" d="M683.705 788.904c18.7725,0 33.9886,15.2162 33.9886,33.9886 0,18.7713 -15.2162,33.9886 -33.9886,33.9886 -18.7713,0 -33.9886,-15.2173 -33.9886,-33.9886 0,-18.7725 15.2173,-33.9886 33.9886,-33.9886z"/>
  <path class="fil5" d="M581.739 890.87c0,-18.7725 15.2173,-33.9886 33.9886,-33.9886 18.7725,0 33.9886,15.2162 33.9886,33.9886 0,18.7713 -15.2162,33.9886 -33.9886,33.9886 -18.7713,0 -33.9886,-15.2173 -33.9886,-33.9886z"/>
  <path class="fil5" d="M717.694 890.87c0,-18.7725 15.2173,-33.9886 33.9886,-33.9886 18.7725,0 33.9886,15.2162 33.9886,33.9886 0,18.7713 -15.2162,33.9886 -33.9886,33.9886 -18.7713,0 -33.9886,-15.2173 -33.9886,-33.9886z"/>
 </g>
</svg>
